<?xml version="1.0" standalone="no"?>
<!DOCTYPE svg PUBLIC "-//W3C//DTD SVG 20010904//EN"
 "http://www.w3.org/TR/2001/REC-SVG-20010904/DTD/svg10.dtd">
<svg version="1.0" xmlns="http://www.w3.org/2000/svg"
 width="700.000000pt" height="302.000000pt" viewBox="0 0 700.000000 302.000000"
 preserveAspectRatio="xMidYMid meet">

<g transform="translate(0.000000,302.000000) scale(0.100000,-0.100000)"
fill="#000000" stroke="none">
<path d="M217 2803 c-4 -3 -7 -585 -7 -1293 0 -987 3 -1289 12 -1298 9 -9 207
-12 830 -12 798 0 818 0 828 19 12 23 14 611 3 611 -5 0 -7 -134 -5 -299 2
-245 0 -300 -11 -310 -11 -8 -225 -10 -828 -9 l-814 3 -3 1293 -2 1292 827 -2
828 -3 3 -562 2 -563 -773 0 c-588 0 -776 -3 -785 -12 -18 -18 -17 -282 1
-297 10 -8 235 -12 783 -13 l769 -3 3 -98 3 -97 -774 0 c-588 0 -776 -3 -785
-12 -13 -13 -18 -262 -6 -292 3 -9 14 -16 23 -16 14 1 14 2 -1 11 -16 9 -18
27 -18 143 0 100 3 136 14 145 10 8 601 10 2237 9 l2224 -3 3 -147 c2 -125 0
-147 -13 -151 -11 -4 -11 -5 2 -3 16 1 18 16 21 145 2 97 -1 148 -9 157 -10
12 -222 14 -1355 14 l-1344 0 0 100 0 100 1346 0 c740 0 1350 2 1355 6 14 8
11 288 -3 302 -9 9 -324 12 -1355 12 l-1343 0 0 565 0 565 1403 -2 1402 -3 3
-1281 c2 -1071 0 -1283 -12 -1293 -10 -8 -382 -10 -1402 -9 l-1389 3 -3 308
c-1 169 -6 307 -10 307 -12 0 -3 -602 10 -617 8 -11 263 -13 1404 -13 1367 0
1393 0 1404 19 7 13 10 435 10 1294 0 1061 -2 1276 -14 1286 -10 8 -386 10
-1412 9 l-1399 -3 -3 -567 -2 -568 -100 0 -100 0 0 558 c0 421 -3 561 -12 570
-9 9 -208 12 -833 12 -452 0 -825 -3 -828 -7z m4578 -1293 l0 -145 -2235 0
-2235 0 -3 134 c-2 90 1 138 9 147 10 12 347 14 2238 12 l2226 -3 0 -145z
m-2707 -262 l3 -98 -101 0 -100 0 0 100 0 101 98 -3 97 -3 3 -97z"/>
<path d="M2610 1551 c0 -5 -9 -11 -21 -14 -29 -8 -22 -51 9 -55 20 -3 22 1 22
37 0 23 -2 41 -5 41 -3 0 -5 -4 -5 -9z m-5 -41 c0 -7 -6 -15 -12 -17 -8 -3
-13 4 -13 17 0 13 5 20 13 18 6 -3 12 -11 12 -18z"/>
<path d="M2401 1508 c1 -22 3 -26 6 -13 3 11 10 26 15 33 8 9 6 12 -6 12 -12
0 -16 -9 -15 -32z"/>
<path d="M2444 1526 c-9 -23 3 -46 23 -45 17 1 17 2 1 6 -25 6 -22 23 3 23 12
0 19 5 17 13 -7 18 -37 21 -44 3z m33 -2 c-3 -3 -12 -4 -19 -1 -8 3 -5 6 6 6
11 1 17 -2 13 -5z"/>
<path d="M2506 1524 c-9 -23 -7 -34 4 -34 6 0 10 9 10 21 0 15 5 19 15 15 8
-3 15 -1 15 4 0 16 -37 11 -44 -6z"/>
<path d="M2634 1525 c-10 -24 4 -45 28 -44 17 1 18 2 6 6 -22 5 -24 23 -3 23
8 0 15 7 15 15 0 8 -9 15 -20 15 -11 0 -23 -7 -26 -15z m33 -1 c-3 -3 -12 -4
-19 -1 -8 3 -5 6 6 6 11 1 17 -2 13 -5z"/>
<path d="M2700 1510 c0 -16 2 -30 4 -30 2 0 6 14 8 30 3 17 1 30 -4 30 -4 0
-8 -13 -8 -30z"/>
<path d="M5127 2803 c-4 -3 -7 -585 -7 -1293 0 -987 3 -1289 12 -1298 17 -17
1639 -17 1656 0 9 9 12 309 12 1289 0 703 -3 1284 -6 1293 -6 14 -88 16 -833
16 -455 0 -831 -3 -834 -7z m1661 -1287 c1 -940 -1 -1282 -9 -1292 -10 -12
-149 -14 -828 -12 l-816 3 -3 1293 -2 1292 827 -2 828 -3 3 -1279z"/>
<path d="M5562 2729 c6 -80 70 -81 76 0 2 24 -1 41 -7 41 -6 0 -11 -18 -11
-40 0 -33 -3 -40 -20 -40 -16 0 -20 7 -20 34 0 19 -5 38 -11 41 -7 5 -9 -7 -7
-36z"/>
<path d="M6127 2753 c-14 -14 -4 -83 12 -83 8 0 8 77 0 85 -3 3 -9 2 -12 -2z"/>
<path d="M5683 2742 c-19 -3 -23 -10 -23 -38 0 -21 4 -33 10 -29 6 3 10 18 10
31 0 35 23 26 31 -12 6 -28 7 -27 8 8 1 41 -3 46 -36 40z"/>
<path d="M5763 2742 c-18 -3 -23 -10 -23 -32 0 -38 18 -48 22 -13 5 40 28 42
29 1 l1 -33 9 33 c11 38 29 43 29 7 0 -14 5 -25 10 -25 14 0 12 47 -2 56 -13
9 -42 11 -75 6z"/>
<path d="M5876 2734 c-19 -18 -19 -20 -6 -45 6 -10 19 -19 30 -19 16 0 40 26
40 44 0 8 -31 36 -40 36 -5 0 -16 -7 -24 -16z m42 -27 c2 -10 -3 -17 -12 -17
-18 0 -29 16 -21 31 9 14 29 6 33 -14z"/>
<path d="M6058 2743 c-13 -3 -18 -15 -18 -39 0 -21 4 -33 10 -29 6 3 10 18 10
31 0 35 23 26 32 -12 5 -25 6 -24 5 10 -2 40 -9 47 -39 39z"/>
<path d="M6228 2743 c-13 -3 -18 -14 -17 -41 l1 -37 9 33 c12 39 31 37 41 -4
5 -25 6 -24 5 10 -2 40 -9 47 -39 39z"/>
<path d="M6303 2743 c-7 -3 -13 -18 -13 -34 0 -27 8 -34 38 -30 6 1 12 -3 12
-9 0 -5 -10 -10 -22 -10 -18 0 -20 -2 -9 -9 26 -17 41 -1 41 44 0 43 -15 58
-47 48z m35 -30 c-5 -25 -28 -28 -28 -4 0 12 6 21 16 21 9 0 14 -7 12 -17z"/>
<path d="M5950 2718 c0 -34 14 -49 41 -45 19 3 25 11 27 35 2 18 -1 32 -7 32
-6 0 -11 -11 -11 -25 0 -16 -6 -25 -15 -25 -9 0 -15 9 -15 25 0 14 -4 25 -10
25 -5 0 -10 -10 -10 -22z"/>
<path d="M6170 2704 c0 -21 4 -33 10 -29 6 3 10 19 10 36 0 16 -4 29 -10 29
-5 0 -10 -16 -10 -36z"/>
<path d="M5941 721 c-8 -5 -10 -18 -5 -35 9 -39 20 -39 31 -1 11 36 0 51 -26
36z"/>
<path d="M5238 619 c-16 -9 -18 -27 -18 -144 0 -145 4 -165 29 -165 14 1 14 2
-1 11 -16 9 -18 27 -18 142 0 90 4 137 12 145 9 9 180 12 709 12 384 0 704 -3
713 -6 14 -5 16 -28 16 -149 0 -128 -2 -144 -17 -149 -14 -4 -14 -4 2 -3 19 2
20 11 23 146 2 97 -1 148 -9 157 -10 12 -128 14 -718 14 -461 -1 -712 -4 -723
-11z"/>
<path d="M5920 511 c0 -5 -7 -8 -17 -7 -11 1 -17 -9 -20 -31 -3 -24 0 -33 10
-33 10 0 13 8 9 25 -2 14 0 25 7 25 6 0 13 -11 17 -25 8 -31 20 -32 30 -3 l7
23 8 -23 c12 -31 23 -28 42 13 20 41 20 45 8 45 -5 0 -14 -12 -19 -27 -9 -25
-11 -25 -11 -6 -1 34 -18 37 -35 6 l-15 -28 -1 28 c0 15 -4 27 -10 27 -5 0
-10 -4 -10 -9z"/>
<path d="M6066 498 c-7 -29 -8 -63 0 -55 3 3 9 22 14 41 9 39 -4 51 -14 14z"/>
<path d="M6096 489 c-8 -44 -8 -55 3 -43 12 13 22 74 12 74 -5 0 -11 -14 -15
-31z"/>
<path d="M6135 508 c-15 -45 -8 -68 20 -68 28 0 48 30 42 63 -3 18 -5 16 -13
-13 -13 -46 -40 -48 -36 -2 3 32 -5 44 -13 20z"/>
<path d="M6605 502 c-14 -10 -12 -55 3 -60 7 -2 10 2 6 12 -3 9 -1 23 5 30 13
15 1 29 -14 18z"/>
<path d="M5300 485 c-7 -8 -10 -22 -6 -30 6 -16 46 -21 46 -5 0 5 -7 7 -16 3
-12 -4 -15 -1 -12 13 2 11 11 18 21 16 9 -2 17 2 17 8 0 15 -36 12 -50 -5z"/>
<path d="M5367 494 c-4 -4 -7 -18 -7 -31 0 -21 4 -24 28 -21 21 2 27 8 27 28
0 18 -6 26 -20 28 -12 2 -24 0 -28 -4z m33 -24 c0 -11 -4 -20 -10 -20 -5 0
-10 9 -10 20 0 11 5 20 10 20 6 0 10 -9 10 -20z"/>
<path d="M5434 486 c-3 -8 -4 -23 -1 -33 3 -15 6 -13 15 10 14 34 26 35 20 2
-3 -14 -2 -25 2 -25 10 0 21 41 14 52 -9 13 -44 9 -50 -6z"/>
<path d="M5498 470 c2 -16 8 -30 13 -30 5 0 9 14 9 30 0 18 -5 30 -13 30 -9 0
-12 -10 -9 -30z"/>
<path d="M5536 478 c-7 -28 -7 -78 1 -60 3 7 16 17 29 22 34 13 34 60 0 60
-16 0 -26 -7 -30 -22z m36 -20 c-15 -15 -26 -4 -18 18 5 13 9 15 18 6 9 -9 9
-15 0 -24z"/>
<path d="M5610 485 c-16 -20 -6 -45 19 -45 22 0 41 27 34 48 -6 17 -38 15 -53
-3z m32 -27 c-15 -15 -26 -4 -18 18 5 13 9 15 18 6 9 -9 9 -15 0 -24z"/>
<path d="M5680 486 c0 -8 -3 -21 -6 -30 -3 -9 -2 -16 4 -16 5 0 13 11 16 25 4
14 11 23 17 20 5 -4 7 -15 4 -26 -4 -11 -2 -19 4 -19 6 0 11 14 11 30 0 25 -4
30 -25 30 -15 0 -25 -6 -25 -14z"/>
<path d="M5750 486 c-7 -9 -10 -23 -6 -31 6 -16 46 -21 46 -5 0 5 -7 7 -15 4
-8 -4 -15 -1 -15 5 0 6 9 11 21 11 12 0 19 5 17 13 -7 18 -33 20 -48 3z"/>
<path d="M5814 486 c-3 -8 -4 -23 -1 -33 3 -14 6 -12 17 12 l13 30 6 -30 c5
-25 8 -27 14 -12 4 10 7 25 7 33 0 19 -49 18 -56 0z"/>
<path d="M6037 494 c-4 -4 -7 -19 -6 -33 l0 -26 10 24 c10 26 8 47 -4 35z"/>
<path d="M6208 470 c-3 -16 -1 -30 4 -30 4 0 8 6 8 14 0 7 7 19 15 26 13 11
15 8 16 -16 0 -28 1 -28 10 -6 11 30 4 42 -25 42 -19 0 -25 -7 -28 -30z"/>
<path d="M6286 493 c-3 -4 -6 -18 -5 -32 l1 -26 13 30 c14 30 19 27 16 -7 -1
-10 3 -18 8 -18 6 0 11 9 11 19 0 11 5 23 10 26 6 4 10 -5 10 -20 0 -15 4 -24
10 -20 6 3 10 17 10 29 0 21 -5 24 -39 24 -21 0 -42 -2 -45 -5z"/>
<path d="M6384 486 c-10 -26 4 -48 28 -44 17 2 23 10 23 28 0 18 -6 26 -23 28
-13 2 -25 -3 -28 -12z m39 -21 c-3 -8 -9 -15 -14 -15 -10 0 -12 24 -3 33 11
11 24 -3 17 -18z"/>
<path d="M6456 481 c-9 -27 4 -44 30 -39 13 2 20 13 22 33 l2 30 -17 -30 -17
-30 -6 30 c-6 29 -6 29 -14 6z"/>
<path d="M6526 478 c-8 -32 -7 -38 4 -38 6 0 10 9 10 19 0 11 5 23 10 26 6 4
10 -5 10 -20 0 -15 4 -24 10 -20 6 3 10 17 10 31 0 33 -45 35 -54 2z"/>
<path d="M751 2718 c1 -47 2 -49 8 -18 l6 35 14 -35 13 -35 16 35 16 35 7 -35
c6 -32 6 -30 8 18 1 59 -12 67 -33 20 l-14 -33 -12 33 c-18 48 -30 39 -29 -20z"/>
<path d="M3212 2729 c6 -81 70 -80 76 0 2 29 0 41 -7 36 -6 -3 -11 -22 -11
-41 0 -27 -4 -34 -20 -34 -17 0 -20 7 -20 40 0 22 -5 40 -11 40 -6 0 -9 -17
-7 -41z"/>
<path d="M3440 2755 c0 -9 -6 -12 -15 -9 -9 4 -19 -3 -26 -20 -15 -32 -1 -51
36 -51 23 -1 25 3 25 47 0 26 -4 48 -10 48 -5 0 -10 -7 -10 -15z m-2 -47 c-2
-13 -7 -23 -13 -23 -5 0 -11 10 -13 23 -2 15 2 22 13 22 11 0 15 -7 13 -22z"/>
<path d="M1117 2754 c-7 -8 3 -66 13 -78 5 -4 7 10 6 33 -2 41 -8 56 -19 45z"/>
<path d="M3558 2748 c-6 -19 6 -71 17 -75 8 -2 11 30 6 80 -1 12 -19 8 -23 -5z"/>
<path d="M872 2738 c-19 -19 -14 -56 8 -63 43 -14 69 44 31 65 -24 13 -24 13
-39 -2z m36 -30 c-2 -13 -7 -23 -13 -23 -5 0 -11 10 -13 23 -2 15 2 22 13 22
11 0 15 -7 13 -22z"/>
<path d="M1053 2742 c-19 -3 -23 -10 -23 -38 0 -21 4 -33 10 -29 6 3 10 17 10
31 0 15 6 24 15 24 10 0 15 -10 15 -31 0 -19 4 -28 11 -23 11 6 4 54 -9 65 -4
3 -17 3 -29 1z"/>
<path d="M1223 2742 c-19 -3 -23 -10 -23 -38 0 -19 5 -34 10 -34 6 0 10 14 10
30 0 20 5 30 15 30 10 0 15 -10 15 -31 0 -17 4 -28 10 -24 29 18 -2 73 -37 67z"/>
<path d="M1291 2737 c-24 -24 -3 -71 25 -60 8 3 14 0 14 -6 0 -6 -10 -11 -22
-12 -22 0 -22 -1 -3 -8 29 -12 45 6 45 49 0 32 -4 38 -24 42 -14 3 -30 0 -35
-5z m39 -27 c0 -11 -7 -20 -15 -20 -8 0 -15 9 -15 20 0 11 7 20 15 20 8 0 15
-9 15 -20z"/>
<path d="M3333 2742 c-20 -3 -23 -10 -23 -47 0 -24 5 -47 10 -50 10 -6 14 19
10 63 -1 14 4 22 14 22 19 0 21 -31 4 -48 -7 -7 -8 -12 -2 -12 15 0 34 22 34
41 0 22 -20 36 -47 31z"/>
<path d="M3495 2740 c-3 -5 2 -10 12 -11 15 0 14 -2 -5 -11 -31 -15 -24 -43
11 -43 23 -1 27 3 27 25 0 38 -30 64 -45 40z m25 -39 c0 -6 -4 -13 -10 -16 -5
-3 -10 1 -10 9 0 9 5 16 10 16 6 0 10 -4 10 -9z"/>
<path d="M3663 2742 c-18 -3 -23 -10 -23 -32 0 -38 18 -48 22 -13 4 39 28 42
28 3 0 -18 4 -29 10 -25 14 9 12 51 -2 62 -7 5 -23 7 -35 5z"/>
<path d="M3740 2740 c-19 -12 -8 -65 13 -64 9 1 17 -2 17 -7 0 -5 -10 -9 -22
-10 -22 0 -22 -1 -3 -8 33 -13 45 -2 45 44 0 33 -4 44 -19 48 -10 2 -24 1 -31
-3z m30 -30 c0 -11 -4 -20 -9 -20 -14 0 -23 18 -16 30 10 17 25 11 25 -10z"/>
<path d="M941 2728 c2 -33 17 -53 43 -53 23 -1 26 3 26 32 0 18 -4 33 -10 33
-5 0 -10 -11 -10 -25 0 -16 -6 -25 -15 -25 -9 0 -15 9 -15 25 0 14 -4 25 -10
25 -5 0 -10 -6 -9 -12z"/>
<path d="M1160 2710 c0 -16 5 -30 10 -30 6 0 10 14 10 30 0 17 -4 30 -10 30
-5 0 -10 -13 -10 -30z"/>
<path d="M3613 2705 c0 -22 2 -30 4 -17 2 12 2 30 0 40 -3 9 -5 -1 -4 -23z"/>
<path d="M2260 2540 c0 -5 5 -10 11 -10 5 0 7 5 4 10 -3 6 -8 10 -11 10 -2 0
-4 -4 -4 -10z"/>
<path d="M2308 2514 c-2 -19 0 -37 4 -40 4 -3 8 13 8 35 0 51 -6 53 -12 5z"/>
<path d="M3995 2540 c-9 -14 3 -30 23 -30 15 1 15 2 -1 11 -9 6 -15 14 -12 20
4 5 4 9 1 9 -3 0 -8 -4 -11 -10z"/>
<path d="M3962 2510 c0 -19 2 -27 5 -17 2 9 2 25 0 35 -3 9 -5 1 -5 -18z"/>
<path d="M4072 2510 c0 -19 2 -27 5 -17 2 9 2 25 0 35 -3 9 -5 1 -5 -18z"/>
<path d="M4160 2530 c0 -5 5 -10 10 -10 6 0 10 5 10 10 0 6 -4 10 -10 10 -5 0
-10 -4 -10 -10z"/>
<path d="M2342 2506 c2 -16 10 -31 18 -33 12 -4 13 -3 1 5 -7 5 -11 14 -8 19
3 5 1 15 -4 23 -7 11 -9 7 -7 -14z"/>
<path d="M2373 2515 c0 -8 4 -15 9 -15 4 0 8 4 8 9 0 6 -4 12 -8 15 -5 3 -9
-1 -9 -9z"/>
<path d="M2401 2514 c0 -11 3 -14 6 -6 3 7 2 16 -1 19 -3 4 -6 -2 -5 -13z"/>
<path d="M2430 2521 c0 -5 5 -13 10 -16 6 -3 10 -2 10 4 0 5 -4 13 -10 16 -5
3 -10 2 -10 -4z"/>
<path d="M2520 2490 c0 -22 2 -40 4 -40 2 0 6 18 8 40 2 22 0 40 -4 40 -5 0
-8 -18 -8 -40z"/>
<path d="M2556 2515 c4 -8 1 -22 -6 -30 -11 -13 -10 -14 4 -9 18 7 22 39 6 49
-6 3 -7 -1 -4 -10z"/>
<path d="M2581 2503 c1 -22 2 -23 6 -8 3 11 10 23 17 27 7 5 5 8 -6 8 -13 0
-18 -7 -17 -27z"/>
<path d="M2624 2515 c-3 -8 -4 -20 -2 -27 3 -7 7 -1 10 15 6 29 1 36 -8 12z"/>
<path d="M2658 2505 c2 -14 6 -25 8 -25 2 0 4 11 4 25 0 14 -4 25 -9 25 -4 0
-6 -11 -3 -25z"/>
<path d="M2690 2500 c0 -16 2 -30 4 -30 2 0 6 14 8 30 3 17 1 30 -4 30 -4 0
-8 -13 -8 -30z"/>
<path d="M2750 2520 c0 -6 7 -13 16 -17 9 -3 13 -12 9 -22 -5 -13 -4 -13 6 -4
10 10 9 17 -9 33 -12 12 -22 16 -22 10z"/>
<path d="M3835 2520 c-3 -6 2 -13 12 -17 10 -4 21 -11 25 -17 5 -7 8 -6 8 2 0
8 -9 16 -20 19 -11 3 -17 9 -14 14 3 5 3 9 0 9 -3 0 -8 -5 -11 -10z"/>
<path d="M3897 2523 c-13 -12 -7 -41 9 -47 13 -5 14 -3 7 6 -6 7 -9 21 -8 31
3 19 2 21 -8 10z"/>
<path d="M3923 2515 c0 -8 4 -15 9 -15 4 0 8 7 8 15 0 8 -4 15 -8 15 -5 0 -9
-7 -9 -15z"/>
<path d="M4130 2505 c0 -14 4 -25 9 -25 4 0 6 11 3 25 -2 14 -6 25 -8 25 -2 0
-4 -11 -4 -25z"/>
<path d="M4193 2514 c-3 -9 2 -23 13 -32 12 -12 15 -12 7 -2 -6 8 -9 23 -8 33
4 21 -4 22 -12 1z"/>
<path d="M4231 2514 c0 -11 3 -14 6 -6 3 7 2 16 -1 19 -3 4 -6 -2 -5 -13z"/>
<path d="M4262 2505 c0 -16 2 -22 5 -12 2 9 2 23 0 30 -3 6 -5 -1 -5 -18z"/>
<path d="M4309 2498 c-3 -22 -1 -34 4 -29 5 5 7 21 5 37 -3 27 -4 26 -9 -8z"/>
<path d="M2461 2513 c-1 -6 -4 -20 -7 -30 -5 -17 -5 -17 6 0 6 10 9 23 6 30
-3 9 -5 9 -5 0z"/>
<path d="M4041 2494 c0 -11 3 -14 6 -6 3 7 2 16 -1 19 -3 4 -6 -2 -5 -13z"/>
<path d="M4104 2499 c-3 -6 -2 -15 3 -20 5 -5 9 -1 9 11 0 23 -2 24 -12 9z"/>
<path d="M322 2488 c-17 -17 -17 -279 0 -296 9 -9 183 -12 722 -12 391 0 717
4 724 8 9 7 12 45 10 158 l-3 149 -720 3 c-552 2 -724 -1 -733 -10z m1443
-148 l0 -145 -714 -3 c-565 -2 -716 0 -723 10 -9 16 -11 272 -1 281 3 4 329 6
722 5 l716 -3 0 -145z"/>
<path d="M1010 2356 c0 -35 15 -40 16 -5 1 16 -3 29 -7 29 -5 0 -9 -11 -9 -24z"/>
<path d="M1212 2350 c0 -19 2 -27 5 -17 2 9 2 25 0 35 -3 9 -5 1 -5 -18z"/>
<path d="M770 2346 c0 -29 17 -43 33 -27 9 9 7 10 -7 5 -16 -6 -18 -4 -14 19
3 15 1 27 -3 27 -5 0 -9 -11 -9 -24z"/>
<path d="M823 2354 c-3 -8 1 -23 10 -31 13 -13 19 -14 31 -3 18 14 21 36 7 44
-5 4 -7 -2 -4 -13 3 -10 -1 -22 -7 -26 -15 -9 -30 13 -23 32 3 7 2 13 -1 13
-4 0 -9 -7 -13 -16z"/>
<path d="M890 2345 c0 -14 2 -25 4 -25 2 0 6 11 8 25 3 14 1 25 -3 25 -5 0 -9
-11 -9 -25z"/>
<path d="M928 2345 c2 -14 6 -25 8 -25 2 0 4 11 4 25 0 14 -4 25 -9 25 -4 0
-6 -11 -3 -25z"/>
<path d="M960 2355 c0 -8 7 -15 15 -15 18 0 20 -16 3 -23 -10 -4 -10 -6 -1 -6
23 -2 25 21 4 40 -17 16 -21 17 -21 4z"/>
<path d="M1050 2345 c0 -14 2 -25 4 -25 2 0 6 11 8 25 3 14 1 25 -3 25 -5 0
-9 -11 -9 -25z"/>
<path d="M1081 2354 c0 -12 7 -28 17 -35 15 -12 16 -12 6 1 -7 8 -14 24 -17
35 -4 19 -5 19 -6 -1z"/>
<path d="M1122 2345 c0 -16 2 -22 5 -12 2 9 2 23 0 30 -3 6 -5 -1 -5 -18z"/>
<path d="M1150 2346 c0 -29 17 -43 33 -27 9 9 7 10 -7 5 -16 -6 -18 -4 -14 19
3 15 1 27 -3 27 -5 0 -9 -11 -9 -24z"/>
<path d="M1240 2346 c0 -29 12 -39 34 -30 16 6 23 54 8 54 -5 0 -8 -10 -8 -21
1 -12 -5 -24 -13 -27 -10 -3 -13 2 -9 22 3 14 1 26 -3 26 -5 0 -9 -11 -9 -24z"/>
<path d="M1301 2343 c0 -25 1 -26 9 -8 12 27 12 35 0 35 -5 0 -10 -12 -9 -27z"/>
<path d="M2512 2341 c-9 -5 -9 -17 0 -46 l11 -40 13 35 c7 19 13 38 13 41 1
11 -25 18 -37 10z"/>
<path d="M2188 2239 c-16 -9 -18 -27 -18 -154 0 -133 2 -145 20 -155 13 -7
264 -10 790 -8 672 3 772 5 780 18 5 8 10 74 10 147 0 106 -3 135 -16 147 -14
14 -98 16 -782 16 -502 -1 -773 -4 -784 -11z m1560 -11 c8 -8 12 -55 12 -145
0 -121 -2 -133 -19 -143 -21 -11 -1516 -15 -1545 -4 -14 5 -16 28 -16 149 0
105 3 145 13 148 6 3 356 6 777 6 583 1 769 -2 778 -11z"/>
<path d="M2335 2104 c-8 -46 1 -56 17 -18 l12 29 4 -28 c4 -33 22 -26 22 9 0
15 -6 24 -15 24 -8 0 -15 5 -15 10 0 26 -19 6 -25 -26z"/>
<path d="M2548 2103 c-5 -36 -3 -52 6 -42 9 11 16 79 8 79 -6 0 -12 -17 -14
-37z"/>
<path d="M2611 2124 c-47 -25 -51 -64 -7 -64 19 0 25 7 31 36 3 20 5 37 3 38
-2 2 -14 -3 -27 -10z m2 -39 c-3 -8 -9 -15 -14 -15 -10 0 -12 24 -3 33 11 11
24 -3 17 -18z"/>
<path d="M2666 2127 c-23 -17 -18 -60 8 -65 10 -2 23 1 29 7 7 7 3 8 -11 4
-30 -7 -42 25 -17 43 15 11 21 11 33 1 12 -10 14 -9 10 3 -6 20 -29 23 -52 7z"/>
<path d="M3296 2118 c-10 -36 -2 -58 22 -58 23 0 37 16 46 53 9 38 -8 34 -19
-5 -14 -46 -33 -47 -37 -1 -4 37 -4 37 -12 11z"/>
<path d="M3490 2130 c0 -5 -9 -10 -19 -10 -20 0 -37 -32 -26 -50 3 -5 17 -10
31 -10 19 0 24 5 24 24 0 13 3 31 6 40 3 9 1 16 -5 16 -6 0 -11 -4 -11 -10z
m-14 -57 c-11 -11 -19 6 -11 24 8 17 8 17 12 0 3 -10 2 -21 -1 -24z"/>
<path d="M3259 2128 c-8 -32 -6 -68 4 -68 7 0 12 14 13 35 0 19 -3 35 -8 35
-4 0 -8 -1 -9 -2z"/>
<path d="M3586 2123 c-9 -10 -7 -63 3 -63 11 0 20 59 11 65 -4 3 -10 2 -14 -2z"/>
<path d="M2274 2109 c-4 -7 1 -16 12 -22 17 -10 17 -11 -1 -18 -19 -7 -19 -8
1 -8 31 -1 36 10 17 32 -17 19 -17 20 0 14 11 -4 16 -3 12 3 -8 13 -32 13 -41
-1z"/>
<path d="M2410 2106 c-18 -22 -5 -48 22 -44 17 2 23 10 23 28 0 29 -26 38 -45
16z m33 -21 c-3 -8 -9 -15 -14 -15 -10 0 -12 24 -3 33 11 11 24 -3 17 -18z"/>
<path d="M2476 2101 c-9 -27 4 -44 30 -39 13 2 20 13 21 33 l2 30 -12 -27 c-6
-16 -14 -28 -18 -28 -4 0 -9 12 -11 28 -3 27 -4 27 -12 3z"/>
<path d="M2737 2113 c-4 -3 -7 -17 -7 -30 0 -18 6 -23 24 -23 25 0 43 30 31
50 -7 11 -38 13 -48 3z m33 -23 c0 -19 -11 -26 -23 -14 -8 8 3 34 14 34 5 0 9
-9 9 -20z"/>
<path d="M2804 2094 c-9 -35 3 -43 15 -10 13 33 25 34 19 1 -7 -33 8 -32 16 0
4 14 11 23 15 20 5 -3 7 -14 4 -25 -3 -11 0 -20 6 -20 6 0 11 13 11 29 0 27
-3 29 -40 29 -34 1 -41 -3 -46 -24z"/>
<path d="M2906 2098 c-3 -13 -5 -34 -5 -48 1 -16 3 -19 6 -8 2 9 14 18 26 20
16 2 23 11 25 31 3 23 0 27 -21 27 -17 0 -27 -7 -31 -22z m36 -20 c-15 -15
-26 -4 -18 18 5 13 9 15 18 6 9 -9 9 -15 0 -24z"/>
<path d="M2980 2105 c-18 -21 -5 -47 22 -43 31 4 40 58 10 58 -11 0 -25 -7
-32 -15z m32 -27 c-15 -15 -26 -4 -18 18 5 13 9 15 18 6 9 -9 9 -15 0 -24z"/>
<path d="M3050 2106 c0 -8 -3 -21 -6 -30 -3 -9 -1 -16 4 -16 6 0 12 9 14 20 4
26 24 25 21 -1 -2 -10 2 -19 7 -19 6 0 10 14 10 30 0 25 -4 30 -25 30 -15 0
-25 -6 -25 -14z"/>
<path d="M3120 2100 c-6 -11 -8 -25 -5 -30 8 -13 45 -13 45 0 0 5 -7 6 -17 3
-11 -4 -14 -3 -9 5 4 7 14 12 22 12 20 0 12 24 -9 28 -8 2 -21 -6 -27 -18z"/>
<path d="M3187 2113 c-4 -3 -7 -18 -7 -32 l1 -26 16 30 17 30 6 -30 c6 -28 7
-29 14 -8 4 13 4 27 1 33 -7 11 -38 13 -48 3z"/>
<path d="M3376 2098 c-3 -13 -5 -34 -5 -48 1 -16 3 -19 6 -8 2 9 14 18 26 20
16 2 23 11 25 31 3 23 0 27 -21 27 -17 0 -27 -7 -31 -22z m37 -13 c-3 -8 -9
-15 -14 -15 -10 0 -12 24 -3 33 11 11 24 -3 17 -18z"/>
<path d="M3527 2114 c-7 -7 21 -54 32 -54 4 0 6 14 3 30 -4 28 -20 39 -35 24z"/>
<path d="M3622 2103 c-5 -10 -7 -24 -5 -30 5 -15 43 -18 43 -3 0 5 -7 6 -17 3
-11 -4 -14 -3 -9 5 4 7 14 12 22 12 20 0 12 24 -9 28 -8 2 -20 -5 -25 -15z"/>
<path d="M3510 2075 c0 -8 7 -15 15 -15 9 0 12 6 9 15 -4 8 -10 15 -15 15 -5
0 -9 -7 -9 -15z"/>
<path d="M2962 1845 c-1 -39 -6 -75 -11 -80 -4 -6 -4 -25 2 -45 l10 -35 14 33
c9 23 11 38 4 46 -6 6 -12 43 -14 81 l-3 70 -2 -70z"/>
<path d="M2657 1843 c-7 -10 3 -63 12 -63 7 0 6 58 -1 66 -3 3 -8 2 -11 -3z"/>
<path d="M2741 1813 c-1 -29 2 -33 24 -33 22 0 25 4 24 33 -1 29 -2 29 -8 8
-9 -35 -29 -37 -34 -4 -4 27 -4 27 -6 -4z"/>
<path d="M2817 1833 c-4 -3 -7 -17 -7 -30 0 -18 5 -23 23 -22 15 1 17 3 6 6
-11 3 -15 11 -12 24 4 15 8 17 14 8 4 -8 11 -10 14 -7 4 4 4 11 0 17 -7 12
-28 14 -38 4z"/>
<path d="M2690 1805 c0 -14 4 -25 9 -25 5 0 11 11 13 25 4 17 1 25 -8 25 -8 0
-14 -11 -14 -25z"/>
<path d="M4064 1766 c-8 -8 -7 -21 1 -46 l12 -34 11 34 c10 27 10 37 0 46 -10
10 -15 10 -24 0z"/>
<path d="M1034 1762 c-8 -5 -8 -16 1 -42 l12 -34 11 33 c15 43 5 62 -24 43z"/>
<path d="M1016 1241 c-3 -5 -1 -24 6 -42 l11 -33 12 34 c9 26 9 37 1 42 -15
10 -24 10 -30 -1z"/>
<path d="M3394 1242 c-8 -5 -8 -17 1 -42 13 -36 22 -30 27 19 3 25 -10 36 -28
23z"/>
<path d="M1969 1010 c-6 -48 -35 -53 -48 -8 -8 29 -9 30 -10 8 -1 -30 15 -50
41 -50 22 0 31 19 26 57 -4 27 -4 26 -9 -7z"/>
<path d="M2100 1031 c0 -5 -9 -11 -21 -14 -29 -8 -22 -51 9 -55 20 -3 22 1 22
37 0 23 -2 41 -5 41 -3 0 -5 -4 -5 -9z m0 -41 c0 -11 -7 -20 -15 -20 -8 0 -15
9 -15 20 0 11 7 20 15 20 8 0 15 -9 15 -20z"/>
<path d="M2510 999 c0 -38 1 -40 28 -37 21 2 28 9 30 32 4 30 -10 46 -40 46
-14 0 -18 -9 -18 -41z m45 1 c0 -16 -6 -26 -17 -28 -14 -3 -18 3 -18 28 0 25
4 31 18 28 11 -2 17 -12 17 -28z"/>
<path d="M2602 1031 c-8 -5 -12 -21 -10 -37 2 -23 9 -30 30 -32 19 -2 30 3 38
17 21 40 -20 77 -58 52z m52 -16 c8 -23 -4 -45 -25 -45 -11 0 -22 7 -25 15 -9
23 3 45 25 45 10 0 21 -7 25 -15z"/>
<path d="M2681 998 c1 -40 2 -41 9 -13 4 17 8 24 9 16 0 -8 3 -12 6 -10 7 8
-6 49 -16 49 -5 0 -8 -19 -8 -42z"/>
<path d="M2729 1005 c-9 -19 -13 -35 -8 -35 4 0 11 10 15 23 8 21 8 21 15 -8
6 -27 7 -26 8 13 1 51 -8 53 -30 7z"/>
<path d="M2981 1033 c0 -7 -10 -13 -21 -13 -11 0 -20 -4 -20 -10 0 -5 6 -7 14
-4 18 7 31 -15 18 -28 -8 -8 -16 -7 -27 2 -13 11 -14 10 -9 -4 8 -20 43 -21
50 -2 3 8 4 27 1 43 -2 15 -5 22 -6 16z"/>
<path d="M3140 1000 c0 -22 2 -40 4 -40 2 0 6 18 8 40 2 22 0 40 -4 40 -5 0
-8 -18 -8 -40z"/>
<path d="M2190 1002 c0 -17 3 -33 8 -35 9 -6 8 50 -1 60 -4 3 -7 -8 -7 -25z"/>
<path d="M2377 1023 c-2 -5 0 -21 4 -38 7 -29 7 -29 8 8 1 35 -3 46 -12 30z"/>
<path d="M2001 978 c0 -24 3 -37 6 -30 2 6 11 12 18 12 16 0 26 25 19 45 -4 8
-15 15 -25 15 -16 0 -19 -7 -18 -42z m34 12 c0 -7 -6 -15 -12 -17 -8 -3 -13 4
-13 17 0 13 5 20 13 18 6 -3 12 -11 12 -18z"/>
<path d="M2145 1011 c19 -8 19 -8 -3 -15 -25 -8 -25 -27 -1 -34 11 -3 12 -2 0
6 -10 7 -10 11 -1 17 6 4 17 -1 25 -11 13 -17 13 -16 6 11 -5 19 -15 31 -27
32 -18 3 -18 2 1 -6z"/>
<path d="M2224 1006 c-9 -23 3 -46 23 -45 16 1 16 2 1 6 -20 5 -20 43 0 43 7
0 10 -4 7 -10 -3 -5 -1 -10 5 -10 18 0 6 25 -13 28 -10 2 -20 -4 -23 -12z"/>
<path d="M2290 1006 c0 -8 7 -17 16 -20 9 -3 12 -11 8 -18 -5 -10 -3 -9 7 0
12 11 11 15 -5 24 -15 8 -16 12 -5 19 11 7 10 9 -3 9 -10 0 -18 -6 -18 -14z"/>
<path d="M2414 1006 c-9 -24 4 -48 23 -44 12 2 18 12 18 28 0 29 -32 41 -41
16z m36 -16 c0 -11 -7 -20 -15 -20 -8 0 -15 9 -15 20 0 11 7 20 15 20 8 0 15
-9 15 -20z"/>
<path d="M2825 1012 c13 -10 18 -42 6 -42 -5 0 -12 6 -14 13 -3 7 -6 5 -6 -5
-1 -13 6 -17 24 -16 17 2 24 7 20 16 -3 8 -5 20 -5 28 0 8 -8 14 -17 14 -10 0
-14 -4 -8 -8z"/>
<path d="M2871 988 c1 -30 2 -30 8 -9 9 35 29 37 34 4 4 -27 4 -27 6 5 1 28
-2 32 -24 32 -22 0 -25 -4 -24 -32z"/>
<path d="M3034 1005 c-10 -26 1 -35 13 -10 6 14 7 25 2 25 -5 0 -12 -7 -15
-15z"/>
<path d="M3074 1006 c-9 -23 3 -46 23 -45 16 1 16 2 1 6 -20 5 -20 43 0 43 7
0 10 -4 7 -10 -3 -5 -1 -10 5 -10 18 0 6 25 -13 28 -10 2 -20 -4 -23 -12z"/>
<path d="M3170 1005 c0 -8 5 -15 11 -15 5 0 8 4 4 9 -3 5 3 12 12 14 14 4 13
5 -4 6 -14 1 -23 -5 -23 -14z"/>
<path d="M3200 981 c0 -5 -8 -12 -17 -14 -14 -4 -12 -5 5 -6 13 -1 22 5 22 14
0 8 -2 15 -5 15 -3 0 -5 -4 -5 -9z"/>
<path d="M1032 721 c-9 -5 -11 -17 -6 -35 9 -38 21 -40 28 -4 7 35 -2 51 -22
39z"/>
<path d="M3385 719 c-9 -14 5 -73 15 -62 18 18 22 60 6 66 -8 3 -18 2 -21 -4z"/>
<path d="M328 619 c-16 -9 -18 -27 -18 -144 0 -145 4 -165 29 -165 14 1 14 2
-1 11 -16 9 -18 27 -18 142 0 90 4 137 12 145 9 9 180 12 709 12 384 0 704 -3
713 -6 14 -5 16 -28 16 -149 0 -128 -2 -144 -17 -149 -14 -4 -14 -4 2 -3 19 2
20 11 23 146 2 97 -1 148 -9 157 -10 12 -128 14 -718 14 -461 -1 -712 -4 -723
-11z"/>
<path d="M2208 619 c-16 -9 -18 -27 -18 -144 0 -145 4 -165 29 -165 14 1 14 2
-1 11 -16 9 -18 27 -18 142 0 90 4 137 12 145 9 9 308 12 1284 12 700 0 1279
-3 1288 -6 14 -5 16 -28 16 -149 0 -128 -2 -144 -17 -149 -14 -4 -14 -4 2 -3
19 2 20 11 23 146 2 97 -1 148 -9 157 -10 12 -212 14 -1293 14 -851 -1 -1287
-4 -1298 -11z"/>
<path d="M1106 504 c-3 -9 -6 -27 -6 -40 0 -18 5 -24 23 -24 29 0 47 18 47 46
0 33 -52 48 -64 18z m44 -38 c-18 -23 -30 -20 -30 7 0 32 11 40 29 23 12 -12
12 -18 1 -30z"/>
<path d="M1260 510 c0 -5 -9 -10 -19 -10 -20 0 -37 -32 -26 -50 11 -18 55 -12
55 8 0 9 3 27 6 40 4 13 2 22 -5 22 -6 0 -11 -4 -11 -10z m-7 -45 c-3 -8 -9
-15 -14 -15 -10 0 -12 24 -3 33 11 11 24 -3 17 -18z"/>
<path d="M1296 508 c-13 -40 -15 -68 -7 -68 5 0 12 10 14 23 l4 22 2 -22 c1
-27 16 -30 30 -5 10 16 10 16 11 -2 0 -29 16 -7 23 32 8 41 -14 44 -33 5 l-14
-28 -4 28 c-3 28 -20 37 -26 15z"/>
<path d="M3536 498 c-11 -41 -7 -58 13 -58 36 0 51 12 51 40 0 43 -53 57 -64
18z m54 -12 c0 -14 -20 -36 -32 -36 -9 0 -11 44 -2 53 9 9 34 -4 34 -17z"/>
<path d="M3681 504 c-48 -25 -51 -64 -6 -64 20 0 25 7 31 35 8 43 6 45 -25 29z
m1 -46 c-15 -15 -26 -4 -18 18 5 13 9 15 18 6 9 -9 9 -15 0 -24z"/>
<path d="M3726 498 c-10 -35 -2 -58 22 -58 27 0 42 20 41 55 l-1 30 -12 -34
c-17 -48 -34 -50 -38 -4 -4 37 -4 37 -12 11z"/>
<path d="M3920 511 c0 -5 -10 -11 -22 -13 -17 -2 -24 -11 -26 -30 -3 -24 0
-28 23 -28 14 0 27 6 29 13 13 40 15 67 6 67 -5 0 -10 -4 -10 -9z m-19 -54
c-8 -8 -11 -7 -11 4 0 20 13 34 18 19 3 -7 -1 -17 -7 -23z"/>
<path d="M1067 503 c-4 -3 -7 -19 -7 -35 0 -42 25 -35 26 7 0 34 -5 42 -19 28z"/>
<path d="M1604 503 c-12 -4 -6 -63 7 -63 5 0 6 7 3 15 -4 8 -1 22 5 29 13 15
4 26 -15 19z"/>
<path d="M3498 503 c-8 -19 -2 -57 10 -60 7 -3 10 1 6 11 -3 9 -1 22 5 30 6 7
8 16 4 19 -9 9 -21 9 -25 0z"/>
<path d="M4016 503 c-10 -11 -7 -63 5 -63 6 0 9 6 6 13 -2 6 0 20 4 29 9 17
-2 33 -15 21z"/>
<path d="M480 485 c-7 -8 -10 -22 -6 -30 6 -16 46 -21 46 -5 0 5 -7 7 -16 3
-12 -4 -15 -1 -12 13 2 12 11 18 22 16 11 -2 15 1 11 7 -9 16 -30 14 -45 -4z"/>
<path d="M547 493 c-4 -3 -7 -17 -7 -30 0 -18 6 -23 24 -23 25 0 43 30 31 50
-7 11 -38 13 -48 3z m33 -17 c0 -8 -4 -18 -10 -21 -5 -3 -10 3 -10 14 0 12 5
21 10 21 6 0 10 -6 10 -14z"/>
<path d="M617 493 c-4 -3 -7 -18 -7 -32 l1 -26 15 28 c18 34 28 35 20 2 -4
-14 -2 -25 3 -25 10 0 22 40 15 52 -6 10 -38 11 -47 1z"/>
<path d="M678 470 c2 -16 8 -30 13 -30 5 0 9 14 9 30 0 18 -5 30 -13 30 -9 0
-12 -10 -9 -30z"/>
<path d="M716 478 c-3 -13 -5 -34 -5 -48 1 -16 3 -19 6 -8 2 9 14 18 26 20 16
2 23 11 25 31 3 23 0 27 -21 27 -17 0 -27 -7 -31 -22z m37 -13 c-3 -8 -9 -15
-14 -15 -10 0 -12 24 -3 33 11 11 24 -3 17 -18z"/>
<path d="M790 485 c-18 -21 -5 -47 22 -43 31 4 40 58 10 58 -11 0 -25 -7 -32
-15z m32 -27 c-15 -15 -26 -4 -18 18 5 13 9 15 18 6 9 -9 9 -15 0 -24z"/>
<path d="M856 478 c-8 -31 -7 -38 3 -38 5 0 11 9 13 20 4 26 24 25 21 -1 -2
-10 2 -19 7 -19 6 0 10 14 10 30 0 25 -4 30 -24 30 -16 0 -26 -7 -30 -22z"/>
<path d="M930 486 c-7 -9 -10 -23 -6 -31 6 -16 46 -21 46 -5 0 5 -7 7 -15 4
-8 -4 -15 -1 -15 5 0 6 9 11 21 11 12 0 19 5 17 13 -7 18 -33 20 -48 3z"/>
<path d="M997 493 c-4 -3 -7 -18 -7 -32 l1 -26 16 30 17 30 6 -30 c6 -28 7
-29 14 -8 4 13 4 27 1 33 -7 11 -38 13 -48 3z"/>
<path d="M1187 487 c-11 -29 -9 -53 4 -40 6 6 9 21 7 34 -3 21 -4 22 -11 6z"/>
<path d="M1384 486 c-10 -26 4 -48 28 -44 17 2 23 10 23 28 0 18 -6 26 -23 28
-13 2 -25 -3 -28 -12z m32 -33 c-11 -11 -19 6 -11 24 8 17 8 17 12 0 3 -10 2
-21 -1 -24z"/>
<path d="M1456 481 c-9 -27 4 -44 30 -39 13 2 20 13 22 33 l2 30 -17 -30 -17
-30 -6 30 c-6 29 -6 29 -14 6z"/>
<path d="M1526 484 c-9 -24 -7 -44 4 -44 6 0 10 9 10 19 0 11 5 23 10 26 6 4
10 -5 10 -20 0 -15 4 -24 10 -20 6 3 10 17 10 31 0 19 -5 24 -24 24 -13 0 -27
-7 -30 -16z"/>
<path d="M2917 493 c-4 -3 -7 -17 -7 -30 0 -16 6 -23 19 -23 11 0 23 5 26 11
4 6 0 9 -11 7 -12 -2 -19 3 -19 12 0 8 8 14 18 14 9 -1 17 2 17 7 0 10 -34 12
-43 2z"/>
<path d="M2974 485 c-10 -25 4 -47 28 -43 17 2 24 11 26 31 3 23 0 27 -23 27
-14 0 -28 -7 -31 -15z m39 -20 c-3 -8 -9 -15 -14 -15 -10 0 -12 24 -3 33 11
11 24 -3 17 -18z"/>
<path d="M3044 475 c-9 -37 3 -43 17 -9 l12 29 7 -30 c6 -28 6 -29 14 -7 9 27
30 30 21 2 -4 -11 -2 -20 4 -20 6 0 11 14 11 30 0 28 -2 30 -40 30 -34 0 -41
-4 -46 -25z"/>
<path d="M3146 469 c-3 -17 -6 -39 -6 -48 1 -14 2 -14 11 2 5 9 16 17 24 17
17 0 38 36 30 50 -3 6 -17 10 -29 10 -18 0 -25 -7 -30 -31z m44 7 c0 -8 -4
-17 -9 -21 -12 -7 -24 12 -16 25 9 15 25 12 25 -4z"/>
<path d="M3222 483 c-13 -24 -4 -43 18 -43 21 0 45 34 35 50 -10 16 -44 11
-53 -7z m38 -7 c0 -16 -18 -31 -27 -22 -8 8 5 36 17 36 5 0 10 -6 10 -14z"/>
<path d="M3288 470 c-5 -36 7 -40 16 -5 4 14 11 25 17 25 7 0 9 -11 7 -25 -6
-31 7 -33 15 -3 8 28 1 38 -27 38 -19 0 -25 -7 -28 -30z"/>
<path d="M3367 493 c-4 -3 -7 -17 -7 -30 0 -16 6 -23 20 -23 11 0 20 4 20 10
0 5 -7 6 -17 3 -11 -4 -14 -3 -9 5 4 7 14 12 22 12 8 0 14 7 14 15 0 15 -31
21 -43 8z"/>
<path d="M3424 475 c-9 -37 3 -43 18 -9 l12 29 4 -28 c4 -33 22 -26 22 9 0 35
-47 35 -56 -1z"/>
<path d="M3620 486 c0 -8 -3 -21 -6 -30 -3 -9 -2 -16 4 -16 5 0 12 14 14 30 3
17 1 30 -4 30 -4 0 -8 -6 -8 -14z"/>
<path d="M3804 473 c-3 -16 -7 -34 -10 -40 -2 -7 1 -13 6 -13 6 0 10 4 10 9 0
5 10 11 23 13 16 2 23 11 25 31 3 23 0 27 -22 27 -20 0 -27 -6 -32 -27z m32
-20 c-11 -11 -19 6 -11 24 8 17 8 17 12 0 3 -10 2 -21 -1 -24z"/>
<path d="M3950 490 c0 -5 8 -7 18 -4 12 4 13 3 5 -3 -10 -7 -10 -13 2 -29 14
-18 14 -17 15 14 0 25 -4 32 -20 32 -11 0 -20 -4 -20 -10z"/>
<path d="M4050 486 c-7 -9 -10 -23 -6 -31 6 -16 46 -21 46 -5 0 5 -7 7 -15 4
-8 -4 -15 -1 -15 5 0 6 9 11 21 11 12 0 19 5 17 13 -7 18 -33 20 -48 3z"/>
<path d="M3940 455 c0 -8 7 -15 15 -15 9 0 12 6 9 15 -4 8 -10 15 -15 15 -5 0
-9 -7 -9 -15z"/>
</g>
</svg>
